<?xml version="1.0" encoding="UTF-8"?>
<svg width="230px" height="47px" viewBox="0 0 230 47" version="1.1" xmlns="http://www.w3.org/2000/svg" xmlns:xlink="http://www.w3.org/1999/xlink">
    <!-- Generator: Sketch 41.2 (35397) - http://www.bohemiancoding.com/sketch -->
    <title>Group 14</title>
    <desc>Created with Sketch.</desc>
    <defs>
        <ellipse id="path-1" cx="23.0786146" cy="23.0768344" rx="23.0768344" ry="23.0768344"></ellipse>
    </defs>
    <g id="Page-1" stroke="none" stroke-width="1" fill="none" fill-rule="evenodd">
        <g id="Desktop-HD" transform="translate(-100.000000, -38.000000)">
            <g id="Group-14" transform="translate(100.000000, 38.000000)">
                <g id="Group-2" transform="translate(0.319444, 0.000000)">
                    <g id="Group-23" transform="translate(0.000000, 0.007876)">
                        <g id="Group" transform="translate(0.159677, 0.026757)">
                            <mask id="mask-2" fill="white">
                                <use xlink:href="#path-1"></use>
                            </mask>
                            <use id="Mask" fill="#2D95F2" xlink:href="#path-1"></use>
                            <g id="Group-23" mask="url(#mask-2)">
                                <g transform="translate(11.082579, 9.217284)">
                                    <g id="Page-1" stroke-width="1" fill="none" transform="translate(12.867623, 13.018373) scale(-1, 1) translate(-12.867623, -13.018373) translate(0.367623, 0.018373)">
                                        <g id="Group-3" transform="translate(0.000000, 0.102732)" fill="#FFFFFF">
                                            <path d="M14.3470216,0.0835999122 C16.8887913,0.459339788 19.0839963,1.56198161 20.9168112,3.34033634 C23.3980205,5.74781224 24.7084244,8.68379942 24.7091317,12.1692509 C24.7099273,16.2046088 24.7065678,20.2399666 24.7174421,24.2753245 C24.7182378,24.577331 24.6533453,24.6671549 24.3370166,24.6661824 C20.3163347,24.6546008 16.2955644,24.6765263 12.2750593,24.6543355 C5.97261962,24.6195906 0.711288847,19.9014471 0.0694367291,13.5811488 C-0.648359048,6.51361431 4.29947205,1.12691904 10.2113191,0.0904074347 C10.2685199,0.0804171744 10.3283731,0.0852796905 10.3869001,0.0831578653 C10.3815955,1.42167592 10.3763794,2.76019397 10.3711632,4.09880043 C6.37364458,5.05733496 3.55515346,8.94115914 3.96457731,12.9270077 C4.4149347,17.3109638 7.77661307,20.5795471 12.0420121,20.6828092 C14.8523696,20.7507961 17.6655562,20.6986345 20.477505,20.7090668 C20.720454,20.7099509 20.8062995,20.6515123 20.805327,20.3923844 C20.7948947,17.5951116 20.8389225,14.797043 20.7847276,12.0008311 C20.7119667,8.24307865 18.0195473,4.97449537 14.3633773,4.09880043 C14.3579843,2.76037079 14.3525029,1.42202956 14.3470216,0.0835999122" id="Fill-1"></path>
                                        </g>
                                        <path d="M10.386962,0.185863045 C10.7474954,0.0482096363 11.1277442,0.0154097554 11.5056943,0.016470668 C12.4554763,0.0192113588 13.4128615,-0.0819289749 14.3470835,0.186305092 C14.3509595,1.1482679 14.6926642,2.1099839 14.6965659,3.07192101 C14.6980929,3.44837779 14.3618339,3.82503878 14.3633508,4.20150561 C14.3595492,5.64434674 14.3637044,7.08727627 14.3460225,8.52985217 C14.3421325,8.8486564 14.4200212,9.05076025 14.6965657,9.25454388 C16.2634452,10.4089936 16.7306888,12.4722918 15.846595,14.1846931 C14.968955,15.8844519 12.9681623,16.7167378 11.1534713,16.1005244 C9.71266362,15.6112669 8.80593699,14.6000404 8.52859675,13.1016782 C8.23330942,11.5067729 8.79806855,10.21299 10.0678041,9.22032945 C10.2272062,9.09567222 10.393239,9.01645741 10.3898795,8.7506104 C10.3706062,7.23447789 10.3748499,5.71790334 10.3711367,4.20150561 C9.73876175,2.81403571 10.3816574,1.5243811 10.386962,0.185863045 Z" id="Fill-4" fill="#FFFFFF"></path>
                                    </g>
                                    <rect id="Rectangle" fill="#FFFFFF" x="0.671053198" y="20.3426197" width="3.62901783" height="25.7612509"></rect>
                                </g>
                            </g>
                        </g>
                    </g>
                </g>
                <g id="Group-11" transform="translate(64.375000, 10.000000)" fill="#2D95F2">
                    <g id="Group-4" transform="translate(0.255123, 0.470528)">
                        <path d="M0.464324549,0.734755545 L7.60778124,0.734755545 C8.89360987,0.734755545 10.0603628,0.871670429 11.108075,1.1455043 C12.1557872,1.41933818 13.0546632,1.83603565 13.8047299,2.39560923 C14.5547966,2.9551828 15.1322203,3.65761568 15.5370182,4.50292895 C15.9418161,5.34824222 16.144212,6.34236333 16.144212,7.48532212 C16.144212,8.6282809 15.9358632,9.62240202 15.5191595,10.4677153 C15.1024558,11.3130286 14.5190793,12.0154614 13.7690126,12.575035 C13.0189459,13.1346086 12.1141171,13.5572589 11.0544991,13.8429986 C9.99488105,14.1287383 8.8221753,14.271606 7.53634667,14.271606 L3.03596896,14.271606 L3.03596896,26.0225922 L0.464324549,26.0225922 L0.464324549,0.734755545 Z M3.03596896,12.0928517 L7.39347754,12.0928517 C9.41746705,12.0928517 10.9532949,11.6999655 12.0010071,10.9141813 C13.0487193,10.1283972 13.5725676,8.98545552 13.5725676,7.48532212 C13.5725676,5.91375379 13.0308609,4.76485933 11.9474312,4.03860426 C10.8640015,3.3123492 9.34603213,2.94922712 7.39347754,2.94922712 L3.03596896,2.94922712 L3.03596896,12.0928517 Z M24.9918934,23.7366861 L36.7785969,23.7366861 L36.7785969,26.0225922 L22.420249,26.0225922 L22.420249,0.734755545 L24.9918934,0.734755545 L24.9918934,23.7366861 Z M41.6973771,26.0225922 L38.8757117,26.0225922 L49.8052005,0.734755545 L52.3054103,0.734755545 L63.1634645,26.0225922 L60.3060818,26.0225922 L57.5201337,19.3791775 L50.9811835,3.57710559 L41.6973771,26.0225922 Z M74.6542248,26.0225922 L72.0825804,26.0225922 L72.0825804,15.1288208 L62.6175003,0.734755545 L65.8320558,0.734755545 L73.4398372,12.9857838 L81.1190531,0.734755545 L84.119305,0.734755545 L74.6542248,15.1288208 L74.6542248,26.0225922 Z M91.288274,23.7366861 L103.074978,23.7366861 L103.074978,26.0225922 L88.7166296,26.0225922 L88.7166296,0.734755545 L91.288274,0.734755545 L91.288274,23.7366861 Z M113.637089,26.0225922 L111.065444,26.0225922 L111.065444,15.1288208 L101.600364,0.734755545 L104.81492,0.734755545 L112.422701,12.9857838 L120.101917,0.734755545 L123.102169,0.734755545 L113.637089,15.1288208 L113.637089,26.0225922 Z M139.950522,4.80652586 C139.402854,4.04455334 138.700421,3.43141277 137.843202,2.96708576 C136.985983,2.50275875 135.950192,2.27059873 134.735798,2.27059873 C134.116696,2.27059873 133.485696,2.36584387 132.842782,2.556337 C132.199868,2.74683013 131.616491,3.03851836 131.092635,3.43141045 C130.568779,3.82430253 130.146129,4.31838667 129.824672,4.91367771 C129.503215,5.50896874 129.342488,6.21140163 129.342488,7.02099743 C129.342488,7.83059324 129.497262,8.4973092 129.806813,9.02116531 C130.116364,9.54502142 130.527109,9.99148299 131.039059,10.3605634 C131.55101,10.7296439 132.134386,11.0332377 132.789206,11.2713542 C133.444026,11.5094706 134.128601,11.7475834 134.84295,11.9856998 C135.723981,12.2714395 136.610951,12.5809862 137.503888,12.9143492 C138.396824,13.2477122 139.200455,13.6822681 139.914804,14.21803 C140.629154,14.753792 141.21253,15.4324136 141.664951,16.2539152 C142.117372,17.0754168 142.34358,18.1171605 142.34358,19.3791775 C142.34358,20.6411945 142.099514,21.7305607 141.611375,22.6473089 C141.123237,23.5640571 140.492238,24.3200654 139.718359,24.9153564 C138.944481,25.5106475 138.063463,25.9511562 137.07528,26.2368959 C136.087097,26.5226356 135.092976,26.6655033 134.092887,26.6655033 C133.330915,26.6655033 132.568953,26.5881167 131.806981,26.433341 C131.045008,26.2785653 130.318764,26.0464053 129.628227,25.736854 C128.937689,25.4273026 128.294784,25.0344164 127.699493,24.5581836 C127.104202,24.0819508 126.580354,23.5342912 126.127933,22.9151886 L128.342404,21.2721935 C128.890072,22.1770359 129.657986,22.9330442 130.646169,23.540241 C131.634352,24.1474379 132.795152,24.4510318 134.128604,24.4510318 C134.771519,24.4510318 135.426329,24.3498338 136.093055,24.1474348 C136.759781,23.9450359 137.361016,23.6354892 137.896778,23.2187855 C138.43254,22.8020818 138.873048,22.2901391 139.218317,21.6829423 C139.563586,21.0757454 139.736218,20.3673597 139.736218,19.5577639 C139.736218,18.6767332 139.563586,17.9445362 139.218317,17.361151 C138.873048,16.7777658 138.414681,16.2896345 137.843202,15.8967424 C137.271722,15.5038503 136.616912,15.1764451 135.878751,14.9145171 C135.14059,14.652589 134.366724,14.3906649 133.557128,14.1287368 C132.72372,13.8668088 131.902231,13.5691677 131.092635,13.2358048 C130.283039,12.9024418 129.556795,12.4678858 128.913881,11.9321239 C128.270967,11.396362 127.753071,10.7355988 127.360179,9.94981468 C126.967287,9.16403051 126.770844,8.1996735 126.770844,7.05671472 C126.770844,5.84232101 127.01491,4.7946245 127.503048,3.91359377 C127.991187,3.03256304 128.628139,2.30631887 129.413923,1.73483948 C130.199707,1.16336009 131.068819,0.746662616 132.021285,0.484734561 C132.97375,0.222806506 133.914296,0.0918444432 134.84295,0.0918444432 C136.557388,0.0918444432 138.021782,0.395438317 139.236176,1.00263517 C140.45057,1.60983203 141.367304,2.33012337 141.986407,3.16353082 L139.950522,4.80652586 Z M156.548853,26.0225922 L153.977209,26.0225922 L153.977209,3.02066169 L145.512213,3.02066169 L145.512213,0.734755545 L165.01385,0.734755545 L165.01385,3.02066169 L156.548853,3.02066169 L156.548853,26.0225922 Z" id="PLAYLYST"></path>
                    </g>
                </g>
            </g>
        </g>
    </g>
</svg>